<svg width="64" height="64" viewBox="0 0 64 64" fill="none" xmlns="http://www.w3.org/2000/svg">
<g clip-path="url(#clip0)">
<path d="M59.733 13.4478C59.0322 10.3407 56.5629 7.92049 53.4424 7.28277C52.8928 7.16701 52.3566 7.52441 52.2444 8.07464C52.1322 8.62428 52.4866 9.16052 53.0362 9.27271C55.3749 9.75152 57.2262 11.5659 57.7514 13.8954C57.858 14.3673 58.277 14.6875 58.7412 14.6875C58.8153 14.6875 58.8906 14.6795 58.9656 14.6625C59.5125 14.5384 59.8565 13.9951 59.733 13.4478Z" fill="black"/>
<path d="M54.8433 2.7488C54.8374 2.37711 54.6276 2.03876 54.2984 1.86616C53.9693 1.69386 53.5711 1.71529 53.2629 1.92211C51.1932 3.30766 48.5122 4.07096 45.7129 4.07096C41.908 4.07096 38.3944 2.67083 36.3152 0.325874C35.9301 -0.108299 35.1805 -0.108299 34.7957 0.325874C32.7165 2.67083 29.203 4.07096 25.3981 4.07096C22.9963 4.07096 20.7058 3.52043 18.7739 2.47889C18.4605 2.31075 18.0817 2.3173 17.7758 2.49823C17.4696 2.67857 17.28 3.0065 17.2761 3.36211C17.2735 3.59721 17.272 3.83408 17.272 4.07126C17.272 7.89549 18.3724 9.82145 19.4372 11.6843C19.877 12.4542 20.2924 13.1812 20.6251 14.0418C20.7802 14.4444 21.165 14.692 21.5723 14.692C21.6944 14.692 21.8176 14.6697 21.9381 14.6238C22.4618 14.4218 22.7216 13.8335 22.5196 13.3106C22.1321 12.3066 21.658 11.4781 21.201 10.6773C20.3189 9.13374 19.4812 7.66755 19.328 4.97502C21.1923 5.71659 23.2605 6.10345 25.3975 6.10345C29.3503 6.10345 33.0617 4.75361 35.5549 2.44973C38.048 4.75332 41.7595 6.10345 45.7123 6.10345C48.2465 6.10345 50.7093 5.54697 52.8165 4.51644C52.7367 7.50626 51.8556 9.04863 50.9247 10.6776C50.4683 11.4766 49.9963 12.3027 49.6088 13.3038C49.4068 13.8269 49.6669 14.4155 50.1897 14.6176C50.7123 14.8203 51.3015 14.5602 51.5035 14.0367C51.8356 13.1779 52.2502 12.4533 52.6888 11.6852C53.7533 9.82294 54.854 7.89639 54.854 4.07215C54.8537 3.62726 54.8508 3.18654 54.8433 2.7488Z" fill="black"/>
<path d="M54.0611 25.6362C53.7311 25.144 53.4115 24.6681 53.1089 24.2018C52.8032 23.731 52.1733 23.5974 51.7037 23.9027C51.2329 24.2084 51.0987 24.8371 51.4046 25.3079C51.7123 25.7829 52.0379 26.2673 52.3735 26.7682C55.2887 31.1141 58.9171 36.5229 58.9171 46.7327C58.9171 52.2428 57.5027 57.4975 54.8226 61.969H39.6179V59.9374C39.6179 59.3767 39.1629 58.9217 38.6023 58.9217H34.5394C33.9787 58.9217 33.5237 59.3767 33.5237 59.9374V61.969H18.3184C15.6384 57.4975 14.224 52.2428 14.224 46.7327C14.224 36.4965 17.4938 31.0801 20.1215 26.7274L20.6054 25.923C20.8934 25.4415 20.7363 24.8178 20.2548 24.53C19.7742 24.242 19.1496 24.3985 18.8618 24.8806L18.3824 25.6775C15.7699 30.0047 12.1924 35.931 12.1924 46.7324C12.1924 52.8213 13.8166 58.6274 16.8897 63.5244C17.0757 63.8205 17.4007 64.0003 17.75 64.0003H34.5388C35.0994 64.0003 35.5544 63.5453 35.5544 62.9846V60.953H37.586V62.9846C37.586 63.5453 38.041 64.0003 38.6017 64.0003H55.3904C55.7398 64.0003 56.0648 63.8205 56.2513 63.5244C59.3245 58.628 60.9487 52.8216 60.9487 46.7324C60.949 35.9043 56.9676 29.9693 54.0611 25.6362Z" fill="black"/>
<path d="M60.0329 38.2766C59.7434 37.0369 59.3794 35.8135 58.9485 34.6398C58.7554 34.1152 58.1739 33.845 57.6484 34.0354C51.2355 36.3611 43.5956 37.5901 35.5543 37.5901C28.2263 37.5901 21.1468 36.553 15.0824 34.591C14.8244 34.5077 14.5426 34.5315 14.3018 34.6565C14.0611 34.7821 13.8798 34.9984 13.7995 35.2582C13.4957 36.2426 13.2332 37.2571 13.0195 38.2739C12.9073 38.8066 13.2353 39.3333 13.7626 39.4678C19.4705 40.9218 25.8349 46.7074 30.3728 54.5669C31.4551 56.4414 32.3978 58.3751 33.1736 60.3141C33.3275 60.6995 33.7013 60.9524 34.1164 60.9524H39.0366C39.4521 60.9524 39.8252 60.6995 39.9797 60.3135C40.7567 58.3745 41.6988 56.4405 42.7811 54.5663C47.288 46.7598 53.6188 40.9828 59.3017 39.4895C59.8332 39.3497 60.1573 38.8125 60.0329 38.2766ZM41.0212 53.5515C40.01 55.3043 39.114 57.1077 38.3555 58.9214H34.7987C34.0399 57.108 33.1442 55.3043 32.1324 53.5515C27.5743 45.6567 21.173 39.713 15.2151 37.7755C15.2913 37.4612 15.3716 37.1479 15.4564 36.8369C21.4914 38.6608 28.4144 39.622 35.5552 39.622C43.4293 39.622 50.9459 38.4712 57.3698 36.2867C57.5344 36.7884 57.6859 37.2984 57.8233 37.8133C51.8994 39.791 45.5439 45.7186 41.0212 53.5515Z" fill="black"/>
<path d="M58.9174 13.2124H4.06692C3.50627 13.2124 3.05127 13.6674 3.05127 14.2281V25.4014C3.05127 25.9621 3.50627 26.4171 4.06692 26.4171H48.6776C54.8843 26.4171 59.9331 21.3674 59.9331 15.161V14.2281C59.9331 13.6677 59.4781 13.2124 58.9174 13.2124ZM48.6776 24.3858H5.08257V15.244H57.9009C57.8563 20.2922 53.7359 24.3858 48.6776 24.3858Z" fill="black"/>
<path d="M10.1612 14.2283C9.60051 14.2283 9.14551 14.6833 9.14551 15.244V19.3069C9.14551 19.8675 9.60051 20.3225 10.1612 20.3225C10.7218 20.3225 11.1768 19.8675 11.1768 19.3069V15.244C11.1768 14.6833 10.7218 14.2283 10.1612 14.2283Z" fill="black"/>
<path d="M15.2398 14.2283C14.6791 14.2283 14.2241 14.6833 14.2241 15.244V21.3385C14.2241 21.8991 14.6791 22.3541 15.2398 22.3541C15.8004 22.3541 16.2554 21.8991 16.2554 21.3385V15.244C16.2554 14.6833 15.8004 14.2283 15.2398 14.2283Z" fill="black"/>
<path d="M20.3189 14.2283C19.7582 14.2283 19.3032 14.6833 19.3032 15.244V19.3069C19.3032 19.8675 19.7582 20.3225 20.3189 20.3225C20.8795 20.3225 21.3345 19.8675 21.3345 19.3069V15.244C21.3345 14.6833 20.8795 14.2283 20.3189 14.2283Z" fill="black"/>
<path d="M25.3975 14.2283C24.8368 14.2283 24.3818 14.6833 24.3818 15.244V21.3385C24.3818 21.8991 24.8368 22.3541 25.3975 22.3541C25.9581 22.3541 26.4131 21.8991 26.4131 21.3385V15.244C26.4131 14.6833 25.9581 14.2283 25.3975 14.2283Z" fill="black"/>
<path d="M30.4761 14.2283C29.9155 14.2283 29.4604 14.6833 29.4604 15.244V19.3069C29.4604 19.8675 29.9155 20.3225 30.4761 20.3225C31.0367 20.3225 31.4917 19.8675 31.4917 19.3069V15.244C31.492 14.6833 31.0367 14.2283 30.4761 14.2283Z" fill="black"/>
<path d="M35.5547 14.2283C34.9941 14.2283 34.5391 14.6833 34.5391 15.244V21.3385C34.5391 21.8991 34.9941 22.3541 35.5547 22.3541C36.1154 22.3541 36.5704 21.8991 36.5704 21.3385V15.244C36.5704 14.6833 36.1154 14.2283 35.5547 14.2283Z" fill="black"/>
<path d="M40.6338 14.2283C40.0732 14.2283 39.6182 14.6833 39.6182 15.244V19.3069C39.6182 19.8675 40.0732 20.3225 40.6338 20.3225C41.1945 20.3225 41.6495 19.8675 41.6495 19.3069V15.244C41.6495 14.6833 41.1945 14.2283 40.6338 14.2283Z" fill="black"/>
<path d="M45.7124 14.2283C45.1518 14.2283 44.6968 14.6833 44.6968 15.244V21.3385C44.6968 21.8991 45.1518 22.3541 45.7124 22.3541C46.2731 22.3541 46.7281 21.8991 46.7281 21.3385V15.244C46.7284 14.6833 46.2731 14.2283 45.7124 14.2283Z" fill="black"/>
<path d="M50.791 14.2283C50.2304 14.2283 49.7754 14.6833 49.7754 15.244V19.3069C49.7754 19.8675 50.2304 20.3225 50.791 20.3225C51.3517 20.3225 51.8067 19.8675 51.8067 19.3069V15.244C51.8067 14.6833 51.3517 14.2283 50.791 14.2283Z" fill="black"/>
</g>
<defs>
<clipPath id="clip0">
<rect width="64" height="64" fill="white"/>
</clipPath>
</defs>
</svg>
