<svg width="64" height="64" viewBox="0 0 64 64" fill="none" xmlns="http://www.w3.org/2000/svg">
<g clip-path="url(#clip0)">
<path d="M61.6966 26.7683C59.4902 22.3948 56.1603 18.8226 52.0635 16.3562L53.4894 12.0262L54.7388 12.4377C54.9803 12.5169 55.2287 12.5564 55.4762 12.5564C55.8421 12.5564 56.206 12.4703 56.5428 12.3003C57.1082 12.0148 57.5278 11.5278 57.7242 10.9298L58.8475 7.52033C59.2545 6.28086 58.5778 4.94151 57.3394 4.53477L52.7646 3.02906C52.2634 2.86409 51.7235 3.13657 51.5585 3.63784C51.3935 4.13898 51.6661 4.67897 52.1672 4.84393L56.7426 6.3499C56.9766 6.42659 57.1092 6.68977 57.0324 6.92339L55.9091 10.3329C55.8588 10.4861 55.745 10.5627 55.6816 10.5946C55.6181 10.6267 55.4885 10.6726 55.3353 10.6226L41.9247 6.20633C41.7729 6.1564 41.6972 6.04366 41.6657 5.98086C41.6338 5.91717 41.5878 5.78736 41.6385 5.63284L42.7618 2.22334C42.8121 2.07022 42.9258 1.99353 42.9892 1.96168C43.0527 1.92984 43.1823 1.8836 43.3351 1.93353L48.0904 3.50077C48.5914 3.66599 49.1315 3.39351 49.2967 2.8925C49.4619 2.39136 49.1894 1.85137 48.6884 1.68615L43.9322 0.118527C43.3335 -0.0777756 42.693 -0.0291139 42.128 0.256105C41.5627 0.541578 41.1431 1.02845 40.9468 1.6264L39.8235 5.03591C39.4162 6.27589 40.0914 7.61536 41.3278 8.02147L42.5781 8.43318L41.1503 12.7609C39.202 12.5781 37.2362 12.6217 35.2668 12.8948C34.7442 12.9671 34.3792 13.4495 34.4517 13.9721C34.5241 14.4947 35.0074 14.8605 35.529 14.7872C39.1344 14.2876 42.7274 14.6158 46.2091 15.7629C52.2378 17.749 57.1321 21.963 59.9906 27.6289C62.849 33.2947 63.3294 39.7342 61.3433 45.7614C57.2472 58.2029 43.7903 64.992 31.3458 60.8958C25.319 58.9114 20.4258 54.698 17.5677 49.0313C14.7097 43.3648 14.2293 36.9247 16.2154 30.8974C18.561 23.7712 24.2241 18.1107 31.3644 15.7559C31.8654 15.5905 32.1376 15.0504 31.9724 14.5493C31.807 14.0484 31.2674 13.7763 30.7658 13.9413C29.1445 14.476 27.5766 15.1755 26.0921 16.0201H18.4384C17.9108 16.0201 17.4832 16.4477 17.4832 16.9753C17.4832 17.503 17.9108 17.9306 18.4384 17.9306H23.2032C22.351 18.5793 21.5384 19.2784 20.7759 20.0271C18.1085 22.6469 16.029 25.87 14.72 29.3943H8.03987C7.51223 29.3943 7.08459 29.8219 7.08459 30.3495C7.08459 30.8772 7.51223 31.3048 8.03987 31.3048H14.0937C13.0148 35.0804 12.8174 38.9819 13.4856 42.765H3.28096C2.75332 42.765 2.32568 43.1927 2.32568 43.7203C2.32568 44.2479 2.75332 44.6756 3.28096 44.6756H13.9C14.3586 46.4596 15.0126 48.2074 15.862 49.8917C17.0344 52.2161 18.5244 54.3134 20.2773 56.1394H11.6903C11.1626 56.1394 10.735 56.567 10.735 57.0946C10.735 57.6223 11.1626 58.0499 11.6903 58.0499H22.3273C24.7808 60.096 27.6229 61.6814 30.7484 62.7105C33.4047 63.5848 36.1021 64.0001 38.7575 64C49.5422 63.9992 59.607 57.1451 63.1582 46.359C65.3041 39.8474 64.785 32.8899 61.6966 26.7683ZM43.0774 13.018L44.3928 9.03088L51.6745 11.4288L50.3611 15.4172C49.2246 14.8456 48.0379 14.3539 46.8072 13.9484C45.5757 13.5427 44.3312 13.2336 43.0774 13.018Z" fill="black"/>
<path d="M0.193554 17.9305H12.0729C12.6005 17.9305 13.0281 17.5029 13.0281 16.9752C13.0281 16.4476 12.6005 16.02 12.0729 16.02H0.193554C-0.334082 16.02 -0.761719 16.4476 -0.761719 16.9752C-0.761719 17.5029 -0.334082 17.9305 0.193554 17.9305Z" fill="black"/>
<path d="M4.01387 22.7071C3.48623 22.7071 3.05859 23.1347 3.05859 23.6624C3.05859 24.19 3.48623 24.6176 4.01387 24.6176H12.9937C13.5214 24.6176 13.949 24.19 13.949 23.6624C13.949 23.1347 13.5214 22.7071 12.9937 22.7071H4.01387Z" fill="black"/>
<path d="M7.86834 37.0332C7.86834 36.5055 7.44071 36.0779 6.91307 36.0779H0.193554C-0.334082 36.0779 -0.761719 36.5055 -0.761719 37.0332C-0.761719 37.5608 -0.334082 37.9884 0.193554 37.9884H6.91307C7.44071 37.9886 7.86834 37.5608 7.86834 37.0332Z" fill="black"/>
<path d="M11.6886 50.4076C11.6886 49.88 11.261 49.4523 10.7333 49.4523H6.0539C5.52627 49.4523 5.09863 49.88 5.09863 50.4076C5.09863 50.9352 5.52614 51.3629 6.0539 51.3629H10.7333C11.261 51.3629 11.6886 50.9352 11.6886 50.4076Z" fill="black"/>
<path d="M19.5784 32.008C16.0932 42.5957 21.8702 54.0444 32.4559 57.529C34.5362 58.2145 36.6738 58.5547 38.8022 58.5547C41.9208 58.5547 45.0191 57.824 47.8844 56.3788C52.7049 53.9473 56.2905 49.7836 57.9804 44.6549C57.9831 44.6468 57.9856 44.6386 57.9882 44.6304L57.9957 44.6055C61.4493 34.0347 55.6683 22.6089 45.1048 19.1304C43.1582 18.4815 41.1047 18.137 39.0535 18.1068C36.9919 18.0763 34.9284 18.3684 32.9554 18.9666C31.8264 19.3089 30.7277 19.7504 29.6744 20.2819C24.854 22.7143 21.2685 26.8786 19.5784 32.008ZM56.4501 43.1051L42.9109 38.6463C42.9768 37.8895 42.8327 37.1275 42.4821 36.4324C42.1315 35.7371 41.6042 35.1683 40.9566 34.7717L45.4048 21.2667C54.1034 24.6376 58.8894 34.1007 56.4501 43.1051ZM39.7926 40.2812C39.2618 40.5487 38.6588 40.5937 38.0941 40.4081C36.9292 40.0248 36.2938 38.7647 36.6773 37.5988C36.9848 36.6642 37.857 36.0703 38.792 36.0703C39.0217 36.0703 39.2553 36.1062 39.485 36.1817C39.4854 36.1818 39.4856 36.1819 39.486 36.182C39.4864 36.1822 39.4867 36.1822 39.487 36.1823C40.0508 36.368 40.5085 36.7623 40.7761 37.2926C41.0436 37.8229 41.0887 38.426 40.9033 38.9904C40.9032 38.9907 40.9032 38.9908 40.9031 38.991C40.9029 38.9913 40.9029 38.9917 40.9028 38.9919C40.7172 39.5559 40.3229 40.0137 39.7926 40.2812ZM38.7607 20.016C40.3762 20.016 41.998 20.2336 43.5898 20.6694L39.1416 34.1744C38.3846 34.1086 37.6226 34.2526 36.9275 34.6033C36.6915 34.7223 36.4706 34.8622 36.2654 35.0195L29.8925 29.2103C29.5025 28.8549 28.8983 28.8828 28.5429 29.2727C28.1875 29.6626 28.2155 30.2668 28.6053 30.6224L35.0617 36.5076C34.9858 36.667 34.9184 36.8315 34.8624 37.0019C34.5172 38.0511 34.601 39.1718 35.0983 40.158C35.5959 41.1444 36.4477 41.8779 37.4967 42.223C37.7711 42.3133 38.0505 42.371 38.3309 42.403L38.6555 45.1818C38.7123 45.6683 39.125 46.0264 39.6031 46.0264C39.6402 46.0264 39.6776 46.0241 39.7152 46.0197C40.2393 45.9586 40.6144 45.4841 40.5531 44.96L40.2275 42.1724C40.3716 42.1186 40.5136 42.0574 40.6529 41.9872C41.3482 41.6365 41.9169 41.1092 42.3134 40.4613L55.8569 44.9215C54.3401 48.8636 51.5526 52.1107 47.8887 54.2069L46.8229 52.0933C46.5853 51.6221 46.0108 51.4328 45.5398 51.6705C45.0687 51.9079 44.8794 52.4824 45.117 52.9535L46.1844 55.0702C42.3196 56.7849 38.0467 57.1063 33.9689 55.9898L34.7127 53.7322C34.8779 53.2312 34.6055 52.6911 34.1043 52.526C33.6027 52.3607 33.0631 52.6333 32.8981 53.1344L32.1542 55.3922C28.1047 53.8233 24.9044 50.9365 22.8852 47.3907L24.9921 46.3281C25.4632 46.0906 25.6525 45.5162 25.4149 45.0451C25.1774 44.5739 24.6028 44.3843 24.1319 44.6223L22.0273 45.6837C20.3873 41.953 19.9769 37.6679 21.1279 33.4837L23.3528 34.2177C23.4521 34.2506 23.553 34.2661 23.6521 34.2661C24.0533 34.2661 24.4266 34.0115 24.5591 33.6098C24.7245 33.1088 24.4522 32.5686 23.9512 32.4034L21.7293 31.6704C23.2585 27.7438 26.0503 24.5111 29.7144 22.4276L30.7611 24.4978C30.9292 24.8304 31.2655 25.0223 31.6144 25.0223C31.7594 25.0223 31.9065 24.9891 32.0447 24.9193C32.5155 24.6812 32.7043 24.1066 32.4662 23.6357L31.4219 21.5699C33.7646 20.5381 36.255 20.016 38.7607 20.016Z" fill="black"/>
</g>
<defs>
<clipPath id="clip0">
<rect width="64" height="64" fill="white"/>
</clipPath>
</defs>
</svg>
