<svg width="64" height="64" viewBox="0 0 64 64" fill="none" xmlns="http://www.w3.org/2000/svg">
<path d="M28.8575 29.0068C26.7047 29.0068 24.9526 30.7586 24.9526 32.9117C24.9526 35.0648 26.7044 36.8166 28.8575 36.8166C31.0106 36.8166 32.7624 35.0648 32.7624 32.9117C32.7624 30.7586 31.0103 29.0068 28.8575 29.0068ZM28.8575 34.5849C27.9349 34.5849 27.184 33.8341 27.184 32.9114C27.184 31.9888 27.9349 31.238 28.8575 31.238C29.7802 31.238 30.531 31.9888 30.531 32.9114C30.531 33.8341 29.7804 34.5849 28.8575 34.5849Z" fill="black"/>
<path d="M53.9595 46.8572C52.1007 46.8572 50.3933 47.5124 49.051 48.6006L41.19 41.449C42.2066 39.7677 42.8028 37.8048 42.8028 35.7008C42.8028 29.9254 38.3917 25.1624 32.7619 24.6009V15.5301C36.5402 14.986 39.4558 11.7363 39.4558 7.80949C39.4561 3.50331 35.9528 0 31.6466 0C27.3404 0 23.8368 3.50331 23.8368 7.80949C23.8368 11.736 26.7524 14.9857 30.5308 15.5301V24.6009C24.9009 25.1626 20.4899 29.9257 20.4899 35.7008C20.4899 37.8043 21.0857 39.7669 22.1018 41.4479L14.3073 48.651C12.9554 47.5311 11.2218 46.8572 9.33342 46.8572C5.02724 46.8572 1.52393 50.3605 1.52393 54.6667C1.52393 58.9729 5.02724 62.4762 9.33342 62.4762C13.6396 62.4762 17.1432 58.9729 17.1432 54.6667C17.1432 53.0517 16.6503 51.5498 15.8073 50.3031L23.4483 43.2417C25.4886 45.4579 28.4034 46.8572 31.6463 46.8572C34.8892 46.8572 37.8043 45.4579 39.8446 43.2417L47.5346 50.2378C46.6635 51.4975 46.15 53.0225 46.15 54.6667C46.15 58.9729 49.6533 62.4762 53.9595 62.4762C58.2657 62.4762 61.769 58.9729 61.769 54.6667C61.769 50.3605 58.2657 46.8572 53.9595 46.8572ZM9.33342 60.2448C6.25769 60.2448 3.75505 57.7421 3.75505 54.6664C3.75505 51.5907 6.25769 49.0881 9.33342 49.0881C12.4091 49.0881 14.9118 51.5907 14.9118 54.6664C14.9118 57.7424 12.4091 60.2448 9.33342 60.2448ZM26.0682 7.80949C26.0682 4.73376 28.5709 2.23113 31.6466 2.23113C34.7223 2.23113 37.2249 4.73376 37.2249 7.80949C37.2249 10.8852 34.7223 13.3879 31.6466 13.3879C28.5709 13.3879 26.0682 10.8852 26.0682 7.80949ZM31.6466 44.6258C26.7253 44.6258 22.7215 40.6218 22.7215 35.7008C22.7215 30.7798 26.7256 26.7757 31.6466 26.7757C36.5676 26.7757 40.5716 30.7798 40.5716 35.7008C40.5716 40.6218 36.5676 44.6258 31.6466 44.6258ZM53.9595 60.2448C50.8838 60.2448 48.3811 57.7421 48.3811 54.6664C48.3811 53.1504 48.9932 51.7774 49.9782 50.771L50.0329 50.7109C51.0417 49.7091 52.4291 49.0881 53.9595 49.0881C57.0352 49.0881 59.5379 51.5907 59.5379 54.6664C59.5376 57.7424 57.035 60.2448 53.9595 60.2448Z" fill="black"/>
<path d="M53.9591 50.2042C51.4985 50.2042 49.4966 52.2061 49.4966 54.6667C49.4966 55.2829 49.9962 55.7823 50.6121 55.7823C51.2281 55.7823 51.7277 55.2826 51.7277 54.6667C51.7277 53.4362 52.7284 52.4353 53.9591 52.4353C54.5753 52.4353 55.0747 51.9356 55.0747 51.3197C55.0747 50.7035 54.575 50.2042 53.9591 50.2042Z" fill="black"/>
<path d="M9.33313 50.2042C6.8725 50.2042 4.87061 52.2061 4.87061 54.6667C4.87061 55.2829 5.37027 55.7823 5.98617 55.7823C6.60207 55.7823 7.10173 55.2826 7.10173 54.6667C7.10173 53.4362 8.10241 52.4353 9.33313 52.4353C9.94931 52.4353 10.4487 51.9356 10.4487 51.3197C10.449 50.7035 9.94931 50.2042 9.33313 50.2042Z" fill="black"/>
<path d="M32.7622 4.46255C32.7622 3.84637 32.2625 3.34698 31.6466 3.34698C29.186 3.34698 27.1841 5.34888 27.1841 7.80951C27.1841 8.42569 27.6837 8.92508 28.2996 8.92508C28.9158 8.92508 29.4152 8.42542 29.4152 7.80951C29.4152 6.57906 30.4159 5.57811 31.6466 5.57811C32.2625 5.57838 32.7622 5.07872 32.7622 4.46255Z" fill="black"/>
</svg>
