<svg width="34" height="34" viewBox="0 0 34 34" fill="none" xmlns="http://www.w3.org/2000/svg">
<g clip-path="url(#clip0)">
<path fill-rule="evenodd" clip-rule="evenodd" d="M17.0817 0C7.66296 0 0 7.66296 0 17.0817C0 26.5005 7.66296 34.1635 17.0817 34.1635C26.5005 34.1635 34.1635 26.5005 34.1635 17.0817C34.1635 7.66296 26.5005 0 17.0817 0ZM23.2673 21.4097C23.6134 21.7385 23.7539 22.2293 23.6343 22.6915C23.5147 23.1537 23.1537 23.5147 22.6915 23.6343C22.2292 23.754 21.7385 23.6134 21.4096 23.2673L17.0825 18.941L12.7554 23.2673C12.2388 23.7581 11.4251 23.7477 10.9213 23.2438C10.4174 22.7399 10.407 21.9263 10.8978 21.4097L15.2241 17.0826L10.8978 12.7555C10.407 12.2388 10.4174 11.4252 10.9213 10.9213C11.4251 10.4174 12.2388 10.407 12.7554 10.8978L17.0825 15.2241L21.4096 10.8978C21.9262 10.407 22.7399 10.4174 23.2438 10.9213C23.7476 11.4252 23.7581 12.2388 23.2673 12.7555L18.941 17.0826L23.2673 21.4097Z" fill="#EC445A"/>
</g>
<defs>
<clipPath id="clip0">
<rect width="34" height="34" rx="17" fill="white"/>
</clipPath>
</defs>
</svg>
