<svg width="64" height="64" viewBox="0 0 64 64" fill="none" xmlns="http://www.w3.org/2000/svg">
<path d="M19.4636 11.4026L27.0641 7.01575C26.8656 6.463 26.7557 5.86425 26.7557 5.24412C26.7557 3.79487 27.344 2.48388 28.2937 1.53788C29.2432 0.58825 30.5507 0 32 0C33.4492 0 34.7602 0.58825 35.7062 1.53788C36.656 2.48388 37.2442 3.795 37.2442 5.24412C37.2442 5.86425 37.1344 6.463 36.9359 7.01575L44.5364 11.4026C45.5355 10.2261 46.9884 9.54937 48.5369 9.54937C49.9861 9.54937 51.2971 10.1341 52.2467 11.0836C53.1927 12.0332 53.781 13.3442 53.781 14.7899C53.781 16.2391 53.1927 17.5501 52.2467 18.4999C51.5061 19.2369 50.546 19.7579 49.4759 19.9526V28.7261C50.546 28.921 51.5061 29.4419 52.2467 30.1787C53.1927 31.1285 53.781 32.4395 53.781 33.8887C53.781 35.3342 53.1927 36.6454 52.2467 37.5951C51.2971 38.5446 49.9861 39.1292 48.5369 39.1292C46.992 39.1292 45.5355 38.456 44.5364 37.2761L40.8867 39.3844L49.3836 52.9164C49.738 53.4762 49.9329 54.2664 49.9329 54.9255C49.9329 55.6057 49.7557 56.2897 49.4014 56.9026L46.4499 62.0158C46.0884 62.6391 45.5852 63.1281 45.0041 63.4649C44.4019 63.8121 43.718 63.9999 43.0234 63.9999H20.9767C20.2114 63.9999 19.4921 63.7804 18.8755 63.394C18.2554 63.0041 17.7521 62.4514 17.4226 61.7959L14.5986 56.9026C14.2159 56.24 14.0457 55.5137 14.0671 54.7977C14.0919 54.0644 14.3222 53.3203 14.7367 52.7109L18.7655 46.301C19.0419 45.8615 19.6194 45.7305 20.0552 46.0069C20.491 46.2832 20.6221 46.8607 20.3492 47.2966L16.3205 53.7064C16.0866 54.1104 15.952 54.369 15.9342 54.8546C15.9236 55.2303 16.0121 55.6165 16.2177 55.9673L19.056 60.8853C19.297 61.2998 19.4386 61.5444 19.8639 61.8138C20.1829 62.0121 20.5655 62.1255 20.9765 62.1255H43.0231C43.3846 62.1255 43.746 62.0298 44.0649 61.8455C44.3732 61.6685 44.6389 61.4098 44.8302 61.0768L47.7819 55.9674C47.9662 55.6484 48.0582 55.287 48.0582 54.9255C48.0582 54.5746 47.9732 54.2239 47.8032 53.9121L37.3825 37.3187C37.2655 37.1628 37.1981 36.9715 37.1981 36.7622V25.2782H34.1225C33.6051 25.2782 33.1871 24.8566 33.1871 24.3393C33.1871 23.8219 33.6052 23.4002 34.1225 23.4002H38.1371C38.4206 23.4002 38.6827 23.2833 38.8741 23.0955C39.0619 22.9041 39.1789 22.6419 39.1789 22.3585C39.1789 22.0715 39.0619 21.8093 38.8741 21.6216C38.6827 21.4304 38.4206 21.3134 38.1371 21.3134H25.8665C25.5795 21.3134 25.3174 21.4304 25.1295 21.6216C24.9382 21.8094 24.8212 22.0716 24.8212 22.3585C24.8212 22.642 24.9382 22.9041 25.1295 23.0955C25.3174 23.2833 25.5795 23.4002 25.8665 23.4002H29.8776C30.395 23.4002 30.813 23.8219 30.813 24.3393C30.813 24.8566 30.3949 25.2782 29.8776 25.2782H26.802V36.7622C26.802 36.9325 26.7524 37.1061 26.6567 37.2585L22.6067 43.7001C22.3339 44.136 21.7564 44.2671 21.3205 43.9944C20.8811 43.718 20.75 43.1404 21.0265 42.7046L23.1135 39.3845L19.4639 37.2762C18.4647 38.4561 17.0119 39.1294 15.4634 39.1294C14.0141 39.1294 12.7031 38.5446 11.7571 37.5952C10.8075 36.6454 10.2192 35.3344 10.2192 33.8889C10.2192 32.4396 10.8075 31.1286 11.7571 30.1789C12.4941 29.4419 13.4544 28.9211 14.5245 28.7262V19.9527C13.4544 19.7579 12.4942 19.237 11.7571 18.5C10.8075 17.5502 10.2192 16.2393 10.2192 14.79C10.2192 13.3444 10.8075 12.0332 11.7571 11.0837C12.7031 10.1341 14.0142 9.5495 15.4634 9.5495C17.0116 9.54938 18.4645 10.2261 19.4636 11.4026ZM27.6594 48.7C27.1384 48.7 26.7202 48.2817 26.7202 47.761C26.7202 47.2436 27.1384 46.8255 27.6594 46.8255H36.337C36.8545 46.8255 37.2761 47.2438 37.2761 47.761C37.2761 48.2817 36.8545 48.7 36.337 48.7H27.6594ZM23.209 55.9816C22.6916 55.9816 22.2736 55.5599 22.2736 55.0425C22.2736 54.5251 22.6917 54.107 23.209 54.107H40.7875C41.3049 54.107 41.723 54.5252 41.723 55.0425C41.723 55.5599 41.3047 55.9816 40.7875 55.9816H23.209ZM25.3704 52.3389C24.853 52.3389 24.435 51.9207 24.435 51.4035C24.435 50.8861 24.8531 50.4645 25.3704 50.4645H38.6225C39.1434 50.4645 39.5615 50.8861 39.5615 51.4035C39.5615 51.9209 39.1434 52.3389 38.6225 52.3389H25.3704ZM27.9996 8.6315L20.399 13.0184C20.5975 13.5746 20.7074 14.17 20.7074 14.79C20.7074 16.2393 20.1191 17.5502 19.1695 18.5C18.4326 19.237 17.4721 19.758 16.3985 19.9527V28.7262C17.4721 28.9211 18.4325 29.442 19.1695 30.1789C20.1191 31.1286 20.7074 32.4396 20.7074 33.8889C20.7074 34.5089 20.5975 35.1043 20.399 35.657L24.109 37.8008L24.9275 36.4966V25.1225C24.4986 24.9772 24.1161 24.7327 23.8006 24.421C23.2726 23.893 22.9467 23.1632 22.9467 22.3587C22.9467 21.5545 23.2726 20.8246 23.8006 20.2966C24.3321 19.7651 25.0621 19.4391 25.8664 19.4391H38.137C38.9377 19.4391 39.6677 19.7651 40.1992 20.2966C40.7272 20.8246 41.0532 21.5546 41.0532 22.3587C41.0532 23.1632 40.7272 23.893 40.1992 24.421C39.884 24.7327 39.5012 24.9772 39.0725 25.1225V36.4966L39.891 37.8008L43.6009 35.657C43.4024 35.1043 43.2925 34.5089 43.2925 33.8889C43.2925 32.4396 43.8807 31.1286 44.8304 30.1789C45.5674 29.4419 46.5277 28.9211 47.6014 28.7262V19.9527C46.5277 19.7579 45.5675 19.237 44.8304 18.5C43.8807 17.5502 43.2925 16.2393 43.2925 14.79C43.2925 14.17 43.4024 13.5746 43.6009 13.0184L36.0002 8.6315C35.0011 9.8115 33.5484 10.4882 31.9999 10.4882C30.4514 10.4882 28.9987 9.8115 27.9996 8.6315ZM50.918 31.5039C50.3085 30.8945 49.4687 30.5189 48.5369 30.5189C47.6085 30.5189 46.7652 30.8945 46.1557 31.5039C45.5461 32.1134 45.1705 32.9568 45.1705 33.8886C45.1705 34.8169 45.5461 35.6602 46.1557 36.2697C46.7652 36.8792 47.6085 37.2549 48.5369 37.2549C49.4687 37.2549 50.3085 36.8792 50.918 36.2697C51.5275 35.6602 51.9065 34.8169 51.9065 33.8886C51.9065 32.9568 51.5275 32.1134 50.918 31.5039ZM17.8442 31.5039C17.2349 30.8945 16.3915 30.5189 15.4631 30.5189C14.5312 30.5189 13.6915 30.8945 13.082 31.5039C12.4726 32.1134 12.0935 32.9568 12.0935 33.8886C12.0935 34.8169 12.4726 35.6602 13.082 36.2697C13.6915 36.8792 14.5312 37.2549 15.4631 37.2549C16.3915 37.2549 17.2349 36.8792 17.8442 36.2697C18.4539 35.6602 18.8295 34.8169 18.8295 33.8886C18.8295 32.9568 18.4539 32.1134 17.8442 31.5039ZM17.8442 12.4089C17.2349 11.7994 16.3915 11.4239 15.4631 11.4239C14.5312 11.4239 13.6915 11.7994 13.082 12.4089C12.4726 13.0184 12.0935 13.8616 12.0935 14.79C12.0935 15.7219 12.4726 16.5653 13.082 17.1746C13.6915 17.7841 14.5312 18.1597 15.4631 18.1597C16.3915 18.1597 17.2349 17.7841 17.8442 17.1746C18.4539 16.5653 18.8295 15.7219 18.8295 14.79C18.8295 13.8616 18.4539 13.0183 17.8442 12.4089ZM34.3811 2.863C33.7717 2.2535 32.9319 1.87437 32 1.87437C31.0716 1.87437 30.2284 2.2535 29.6189 2.863C29.0095 3.4725 28.6304 4.31225 28.6304 5.24412C28.6304 6.1725 29.0095 7.01575 29.6189 7.62525C30.2284 8.23475 31.0716 8.61025 32 8.61025C32.9319 8.61025 33.7717 8.23475 34.3811 7.62525C34.9906 7.01575 35.3696 6.1725 35.3696 5.24412C35.3696 4.31225 34.9906 3.4725 34.3811 2.863ZM50.918 12.4089C50.3085 11.7994 49.4687 11.4239 48.5369 11.4239C47.6085 11.4239 46.7652 11.7994 46.1557 12.4089C45.5461 13.0184 45.1705 13.8616 45.1705 14.79C45.1705 15.7219 45.5461 16.5653 46.1557 17.1746C46.7652 17.7841 47.6085 18.1597 48.5369 18.1597C49.4687 18.1597 50.3085 17.7841 50.918 17.1746C51.5275 16.5653 51.9065 15.7219 51.9065 14.79C51.9065 13.8616 51.5275 13.0183 50.918 12.4089ZM34.1224 60.2264C33.605 60.2264 33.187 59.8048 33.187 59.2874C33.187 58.77 33.6051 58.3484 34.1224 58.3484H42.0454L44.0012 54.9608L37.4036 44.4548H26.5927L19.9915 54.9571L21.951 58.3484H29.8775C30.3949 58.3484 30.8129 58.77 30.8129 59.2874C30.8129 59.8048 30.3947 60.2264 29.8775 60.2264H21.416C21.0936 60.2264 20.7782 60.0526 20.6046 59.7515L18.1206 55.4464C17.9257 55.1524 17.9116 54.7554 18.11 54.4365L25.2499 43.0836C25.4057 42.7824 25.7176 42.5805 26.079 42.5805H37.9175C38.2292 42.5805 38.5341 42.7365 38.7112 43.02L45.8652 54.4154C46.0636 54.7024 46.0884 55.0885 45.9041 55.4111L43.4272 59.6985C43.2749 60.0104 42.956 60.2266 42.584 60.2266H34.1224V60.2264Z" fill="black"/>
</svg>
