<svg width="64" height="64" viewBox="0 0 64 64" fill="none" xmlns="http://www.w3.org/2000/svg">
<path d="M45.7861 40.3666C45.0143 40.5017 38.782 41.6112 35.9071 44.1099C35.7232 43.3048 35.4447 42.5244 35.0774 41.7848C32.8585 37.3277 22.9795 34.0668 22.5357 33.9704C22.0449 33.8427 21.5391 34.1167 21.378 34.5975C21.2429 35.0316 18.0689 45.2097 20.2782 49.6765C22.362 53.8635 27.0314 56.1306 31.2184 54.3941C31.9768 56.2702 32.577 58.2065 33.0128 60.1826C33.0288 60.7154 33.4737 61.1344 34.0065 61.1184C34.5394 61.1024 34.9583 60.6575 34.9423 60.1247C35.2701 58.3899 35.9249 56.7332 36.8718 55.2431C40.0748 57.0954 44.0785 55.8316 46.201 52.8119C48.3234 49.7922 47.0982 42.0164 46.9342 41.1481C46.8899 40.8899 46.7426 40.6609 46.5261 40.5135C46.3096 40.3661 46.0425 40.3131 45.7861 40.3666ZM21.9665 48.8178C20.5772 46.0104 21.9665 39.4115 22.9312 36.1218C26.0088 37.2505 31.9902 39.865 33.3505 42.6049C34.952 45.8078 34.3153 49.5221 32.0674 51.5481C31.0471 49.3139 29.775 47.2035 28.2759 45.2579C28.0553 44.9925 27.7099 44.865 27.3698 44.9233C27.0296 44.9816 26.7465 45.217 26.6269 45.5407C26.5074 45.8645 26.5696 46.2274 26.7902 46.4928C28.2256 48.38 29.4395 50.4258 30.408 52.59C27.2244 53.931 23.6065 52.1076 21.9665 48.8178ZM33.9872 56.5358C33.6399 55.436 33.254 54.4134 32.8681 53.4583C33.3395 53.0946 33.7698 52.6805 34.1512 52.2234C34.4254 52.9011 34.8173 53.525 35.3089 54.0661C34.8091 54.8428 34.3673 55.6554 33.9872 56.4972V56.5358ZM44.5995 51.7121C43.1819 53.9322 40.3383 54.7576 37.9524 53.6416C38.9133 52.3602 39.9921 51.1716 41.1746 50.0913C41.5796 49.745 41.6271 49.136 41.2807 48.731C40.9344 48.3261 40.3254 48.2786 39.9204 48.6249C38.652 49.7662 37.4955 51.0261 36.4666 52.3874C35.9206 51.6183 35.612 50.706 35.5791 49.7633C35.9122 48.8715 36.1105 47.9351 36.1676 46.9848C36.2992 46.6862 36.4609 46.4018 36.6499 46.1358C37.9427 44.2932 42.6024 43.0004 45.1783 42.4601C45.4967 45.0457 45.8826 49.8598 44.5802 51.7024L44.5995 51.7121Z" fill="black"/>
<path d="M52.2502 3.05017C50.6518 3.05017 49.356 4.34597 49.356 5.94442V57.0761C49.3547 58.1332 49.7871 59.1445 50.5522 59.8739C51.6905 60.9616 53.3754 61.2488 54.8097 60.5995C56.2441 59.9503 57.1401 58.4948 57.0739 56.9217V37.7811C57.0718 36.4115 58.03 35.2278 59.3701 34.9448C60.2906 34.7668 60.95 33.9527 60.9329 33.0153V11.7329C60.9329 6.93756 57.0455 3.05017 52.2502 3.05017ZM59.0034 33.0635C58.3048 33.2037 57.6458 33.4969 57.0739 33.9221V31.0279C57.0739 30.4951 56.642 30.0631 56.1092 30.0631C55.5764 30.0631 55.1445 30.4951 55.1445 31.0279V56.9217C55.2125 57.7224 54.7771 58.4814 54.0516 58.827C53.3262 59.1726 52.4625 59.0323 51.8836 58.475C51.501 58.1103 51.2848 57.6046 51.2855 57.0761V5.94442C51.2855 5.4116 51.7174 4.97967 52.2502 4.97967C55.9799 4.97967 59.0034 8.0032 59.0034 11.7329V33.0635Z" fill="black"/>
<path d="M24.2723 23.3586V5.94484C24.2723 4.3464 22.9765 3.0506 21.3781 3.0506C19.7796 3.0506 18.4838 4.3464 18.4838 5.94484V19.4513C18.4784 19.8398 18.2404 20.187 17.8802 20.3324C17.5199 20.4777 17.1076 20.3929 16.8341 20.117C16.6517 19.9441 16.5502 19.7026 16.5543 19.4513V5.94484C16.5543 4.3464 15.2585 3.0506 13.6601 3.0506C12.0616 3.0506 10.7658 4.3464 10.7658 5.94484V19.4513C10.7604 19.8398 10.5224 20.187 10.1622 20.3324C9.80194 20.4777 9.38965 20.3929 9.11612 20.117C8.93375 19.9441 8.83226 19.7026 8.83634 19.4513V5.94484C8.83634 4.3464 7.54055 3.0506 5.9421 3.0506C4.34365 3.0506 3.04785 4.3464 3.04785 5.94484V23.3586C3.04664 27.7313 5.72769 31.6571 9.80109 33.2472V57.0765C9.80109 59.2078 11.5288 60.9355 13.6601 60.9355C15.7914 60.9355 17.5191 59.2078 17.5191 57.0765V33.2279C21.5984 31.6561 24.2847 27.7302 24.2723 23.3586ZM15.5896 57.0765C15.5896 58.1422 14.7257 59.006 13.6601 59.006C12.5945 59.006 11.7306 58.1422 11.7306 57.0765V33.7875C12.02 33.8454 12.3094 33.884 12.5989 33.9226C13.1317 33.9758 13.6068 33.5871 13.6601 33.0543C13.7134 32.5215 13.3246 32.0463 12.7918 31.9931C8.35685 31.5473 4.97977 27.8159 4.97735 23.3586V5.94484C4.97735 5.41203 5.40928 4.9801 5.9421 4.9801C6.47491 4.9801 6.90685 5.41203 6.90685 5.94484V19.4513C6.90751 20.2139 7.20914 20.9455 7.74618 21.4869C8.57172 22.3193 9.81784 22.5714 10.902 22.1255C11.9862 21.6796 12.6943 20.6236 12.6953 19.4513V5.94484C12.6953 5.41203 13.1273 4.9801 13.6601 4.9801C14.1929 4.9801 14.6248 5.41203 14.6248 5.94484V19.4513C14.6255 20.2139 14.9271 20.9455 15.4642 21.4869C16.2897 22.3193 17.5358 22.5714 18.62 22.1255C19.7042 21.6796 20.4123 20.6236 20.4133 19.4513V5.94484C20.4133 5.41203 20.8453 4.9801 21.3781 4.9801C21.9109 4.9801 22.3428 5.41203 22.3428 5.94484V23.3586C22.3472 25.6619 21.4301 27.8712 19.7959 29.4944C18.0015 31.2984 16.2842 31.5107 15.9369 31.858C15.5896 32.2053 15.5896 31.173 15.5896 57.0765Z" fill="black"/>
<path d="M32.2409 26.7155C31.2762 30.9314 33.2635 35.2438 37.1225 36.4787C37.0261 37.183 36.9392 37.9162 36.891 38.6783C36.8522 39.2081 37.249 39.6695 37.7786 39.7106C38.0346 39.7292 38.2874 39.6449 38.4812 39.4765C38.6749 39.3082 38.7935 39.0695 38.8108 38.8134C38.8108 38.1188 38.9363 37.4435 39.0327 36.8067C42.9689 36.9321 46.3648 33.816 47.2813 29.8509C48.304 25.4806 43.6056 17.8591 43.075 17.0101C42.9381 16.7884 42.7173 16.6316 42.4629 16.5752C42.2085 16.5189 41.9421 16.5679 41.7244 16.711C40.8658 17.2802 33.2539 22.3451 32.2409 26.7155ZM41.9559 18.8913C43.4706 21.5155 46.0272 26.7058 45.4001 29.4167C44.6669 32.5908 42.091 34.829 39.3608 34.8869C39.6803 33.3659 40.119 31.8723 40.6728 30.4201C40.8277 30.0965 40.7902 29.7136 40.5755 29.4262C40.3608 29.1387 40.0043 28.9942 39.65 29.051C39.2957 29.1077 39.0022 29.3564 38.888 29.6965C38.2923 31.2625 37.8308 32.8762 37.5084 34.5203C34.6142 33.4205 33.4661 30.1403 34.1704 27.1303C34.7589 24.429 39.409 20.6761 41.9559 18.8913Z" fill="black"/>
<path d="M31.8265 18.0616C31.8844 18.4186 31.9519 18.7852 32.0001 19.1615C32.0721 19.6943 32.5623 20.0679 33.0951 19.996C33.6279 19.924 34.0016 19.4338 33.9296 18.901C33.9296 18.544 33.8235 18.1967 33.7656 17.8494C36.8914 16.9329 38.3482 13.6431 37.6246 10.527C36.9011 7.41082 31.1994 3.60971 30.5627 3.20452C30.3469 3.06364 30.0837 3.01496 29.8318 3.06933C29.5798 3.1237 29.3601 3.2766 29.2217 3.49394C28.8261 4.11138 25.3627 9.65868 26.1248 12.9099C26.7155 15.677 29.0138 17.7537 31.8265 18.0616ZM30.3408 5.3752C32.4825 6.88021 35.3189 9.33067 35.7144 10.9707C36.3323 12.9915 35.3131 15.1509 33.3604 15.9585C33.1012 14.9015 32.7791 13.8609 32.3957 12.8424C32.2066 12.3493 31.6562 12.0999 31.1608 12.2828C30.9198 12.3717 30.7242 12.5531 30.6173 12.7867C30.5105 13.0203 30.5012 13.2869 30.5916 13.5273C30.8939 14.3578 31.1483 15.205 31.3538 16.0646C29.6319 15.6046 28.3174 14.2117 27.9578 12.4661C27.6202 10.8357 29.0962 7.56518 30.3408 5.3752Z" fill="black"/>
</svg>
