<svg width="64" height="64" viewBox="0 0 64 64" fill="none" xmlns="http://www.w3.org/2000/svg">
<path d="M13.9043 17C17.6504 17 20.3589 18.5568 22.0298 21.6703C23.3234 24.0768 23.9702 27.3739 23.9702 31.5615C23.9702 35.5316 23.384 38.8151 22.2117 41.412C20.5138 45.1373 17.7379 47 13.884 47C10.4074 47 7.82021 45.4772 6.12234 42.4317C4.70745 39.8892 4 36.4765 4 32.1937C4 28.8763 4.42447 26.0279 5.2734 23.6485C6.86348 19.2162 9.74043 17 13.9043 17ZM13.8638 43.6553C15.7504 43.6553 17.2528 42.8124 18.3713 41.1264C19.4897 39.4405 20.0489 36.2998 20.0489 31.7043C20.0489 28.3868 19.6447 25.6608 18.8362 23.5262C18.0277 21.378 16.4578 20.3039 14.1266 20.3039C11.984 20.3039 10.4142 21.3236 9.41702 23.363C8.43333 25.3889 7.94149 28.38 7.94149 32.3365C7.94149 35.3141 8.25816 37.707 8.89149 39.5153C9.8617 42.2753 11.5191 43.6553 13.8638 43.6553Z" fill="black"/>
<path d="M53.966 32.0102C55.9064 32.0102 57.5638 32.7036 58.9383 34.0904C60.3128 35.4772 61 37.1496 61 39.1074C61 41.0653 60.3128 42.7376 58.9383 44.1244C57.5638 45.5112 55.9064 46.2046 53.966 46.2046C52.0121 46.2046 50.3479 45.5112 48.9734 44.1244C47.5989 42.7376 46.9117 41.0653 46.9117 39.1074C46.9117 37.1496 47.5989 35.4772 48.9734 34.0904C50.3479 32.7036 52.0121 32.0102 53.966 32.0102ZM51.0351 17.1224H53.2787L37.0883 46.9796H34.8447L51.0351 17.1224ZM34.117 29.1958C35.2759 29.1958 36.2596 28.7879 37.0681 27.9721C37.8901 27.1428 38.3011 26.1502 38.3011 24.9946C38.3011 23.8389 37.8901 22.8532 37.0681 22.0374C36.2596 21.208 35.2759 20.7933 34.117 20.7933C32.9716 20.7933 31.9879 21.2012 31.166 22.017C30.3574 22.8328 29.9532 23.8253 29.9532 24.9946C29.9532 26.1502 30.3574 27.1428 31.166 27.9721C31.9879 28.7879 32.9716 29.1958 34.117 29.1958ZM34.117 17.877C36.0709 17.877 37.7351 18.5772 39.1096 19.9776C40.484 21.3644 41.1713 23.0367 41.1713 24.9946C41.1713 26.9524 40.484 28.6247 39.1096 30.0116C37.7351 31.3984 36.0709 32.0918 34.117 32.0918C32.1766 32.0918 30.5191 31.3984 29.1447 30.0116C27.7702 28.6247 27.083 26.9524 27.083 24.9946C27.083 23.0367 27.7702 21.3644 29.1447 19.9776C30.5191 18.5772 32.1766 17.877 34.117 17.877ZM53.966 43.3086C55.1114 43.3086 56.0883 42.9007 56.8968 42.085C57.7188 41.2556 58.1298 40.2631 58.1298 39.1074C58.1298 37.9517 57.7188 36.966 56.8968 36.1502C56.0883 35.3209 55.1114 34.9062 53.966 34.9062C52.8071 34.9062 51.8167 35.3209 50.9947 36.1502C50.1862 36.966 49.7819 37.9517 49.7819 39.1074C49.7819 40.2631 50.1862 41.2556 50.9947 42.085C51.8167 42.9007 52.8071 43.3086 53.966 43.3086Z" fill="black"/>
</svg>
