<svg width="64" height="64" viewBox="0 0 64 64" fill="none" xmlns="http://www.w3.org/2000/svg">
<path d="M26.9518 58.1481C26.3191 58.1481 25.6796 58.1309 25.0303 58.0966C18.35 57.7426 11.4454 55.6839 4.36963 53.423C2.66751 52.8792 1.52393 51.3203 1.52393 49.5441C1.52393 41.632 1.6549 34.5733 3.2648 28.3158C5.07116 21.2947 8.52783 16.1034 14.143 11.9787C14.5363 11.69 15.0892 11.7744 15.378 12.1676C15.6668 12.5608 15.5821 13.1137 15.1891 13.4025C9.92041 17.2726 6.67505 22.1512 4.97588 28.7559C3.41745 34.8132 3.29071 41.7544 3.29071 49.5441C3.29071 50.5486 3.94042 51.4312 4.90732 51.7401C11.8689 53.9645 18.6536 55.9895 25.124 56.3322C32.1 56.7017 37.8003 55.0737 43.0628 51.2082C48.1616 47.4628 52.0415 41.82 54.9244 33.9572C57.5894 26.6886 59.004 18.57 60.0363 11.5869C60.2225 10.3272 59.3508 9.1405 58.0931 8.94156C52.1623 8.00316 44.4075 6.94804 37.0385 7.11847C29.2956 7.29763 23.074 8.75852 18.0185 11.5849C17.5925 11.823 17.0542 11.6708 16.8163 11.2449C16.5784 10.819 16.7304 10.2808 17.1563 10.0427C22.4695 7.0723 28.9598 5.53802 36.9977 5.35204C44.509 5.1783 52.3651 6.24627 58.3691 7.19633C60.5795 7.54604 62.1113 9.63143 61.784 11.8451C60.7386 18.9168 59.3031 27.1464 56.5832 34.5652C53.5769 42.7647 49.4965 48.6744 44.1088 52.632C39.0677 56.3349 33.4378 58.1479 26.9518 58.1481ZM33.9292 52.2639C28.6528 52.2639 24.3602 47.9713 24.3602 42.695C24.3602 37.4187 28.6528 33.1261 33.9292 33.1261C34.4172 33.1261 34.8126 33.5216 34.8126 34.0095C34.8126 34.4973 34.4172 34.8929 33.9292 34.8929C29.627 34.8929 26.127 38.3929 26.127 42.695C26.127 46.9971 29.627 50.4971 33.9292 50.4971C38.2313 50.4971 41.7313 46.9971 41.7313 42.695C41.7313 39.6952 39.9788 36.9261 37.2665 35.6404C36.8258 35.4315 36.6377 34.9046 36.8467 34.4638C37.0558 34.0228 37.5828 33.8353 38.0234 34.0439C41.3491 35.6204 43.4981 39.0162 43.4981 42.695C43.4981 47.9712 39.2055 52.2639 33.9292 52.2639ZM32.1572 47.3279C31.9241 47.3279 31.7003 47.2358 31.5348 47.0714C31.3686 46.9064 31.2746 46.682 31.2738 46.4476C31.2738 46.4476 31.264 43.729 31.264 42.6866C31.264 41.8316 31.2585 38.947 31.2585 38.9469C31.258 38.7124 31.3508 38.4872 31.5166 38.3211C31.6823 38.155 31.9073 38.0618 32.1419 38.0618H34.2658C36.6055 38.0618 38.1776 39.9236 38.1776 42.6948C38.1776 45.3308 36.5652 47.2723 34.3434 47.3111C33.7386 47.3216 32.2247 47.3275 32.1605 47.3277C32.1594 47.3279 32.1584 47.3279 32.1572 47.3279ZM33.0269 39.8287C33.0286 40.7512 33.0308 42.1374 33.0308 42.6866C33.0308 43.3441 33.0347 44.6697 33.0376 45.5566C33.4965 45.5538 34.0208 45.5498 34.3127 45.5446C35.357 45.5263 36.4108 44.6381 36.4108 42.6948C36.4108 41.3091 35.8473 39.8286 34.2658 39.8286H33.0269V39.8287ZM18.6922 37.0269C14.7483 37.0269 11.2574 34.6595 9.79874 30.9958C9.61829 30.5424 9.83937 30.0288 10.2926 29.8482C10.7459 29.6682 11.2596 29.8888 11.4401 30.3422C12.6296 33.3297 15.4761 35.2601 18.692 35.2601C22.9942 35.2601 26.4943 31.7601 26.4943 27.4579C26.4943 23.1557 22.9942 19.6557 18.692 19.6557C14.3899 19.6557 10.8899 23.1557 10.8899 27.4579C10.8899 27.9457 10.4945 28.3413 10.0065 28.3413C9.51852 28.3413 9.12312 27.9457 9.12312 27.4579C9.12312 22.1815 13.4157 17.8889 18.692 17.8889C23.9685 17.8889 28.2611 22.1815 28.2611 27.4579C28.2612 32.7343 23.9686 37.0269 18.6922 37.0269ZM40.6123 32.1051C34.3647 32.1051 29.282 27.0223 29.282 20.7748C29.282 14.5273 34.3647 9.44451 40.6123 9.44451C45.3842 9.44451 49.6716 12.4611 51.281 16.9511C51.4456 17.4104 51.2067 17.9161 50.7475 18.0808C50.2883 18.2455 49.7826 18.0066 49.6178 17.5474C48.2594 13.7576 44.6404 11.2114 40.6123 11.2114C35.3389 11.2114 31.0488 15.5015 31.0488 20.7749C31.0488 26.0483 35.3391 30.3384 40.6123 30.3384C45.8856 30.3384 50.1758 26.0482 50.1758 20.7749C50.1758 20.2871 50.5713 19.8915 51.0592 19.8915C51.5472 19.8915 51.9426 20.2871 51.9426 20.7749C51.9427 27.0223 46.8599 32.1051 40.6123 32.1051ZM21.7429 31.3809C21.386 31.3809 21.0498 31.163 20.9163 30.8092L20.4158 29.4832H16.9731L16.4671 30.8117C16.2933 31.2676 15.7825 31.4965 15.3271 31.3228C14.8712 31.1491 14.6423 30.6388 14.8159 30.1828L17.7177 22.5639C17.7202 22.557 17.723 22.5503 17.7256 22.5436C17.8891 22.1444 18.2732 21.8863 18.7045 21.886H18.7055C19.1363 21.886 19.5205 22.1434 19.6845 22.5419C19.6877 22.5498 19.691 22.558 19.6939 22.5661L22.5693 30.1854C22.7416 30.6418 22.5112 31.1516 22.0548 31.3238C21.9521 31.3627 21.8466 31.3809 21.7429 31.3809ZM17.646 27.7164H19.7491L18.7023 24.9427L17.646 27.7164ZM46.2545 25.7576C45.7665 25.7576 45.3711 25.3621 45.3711 24.8742V22.3437C45.3711 21.8558 45.7665 21.4603 46.2545 21.4603C46.7425 21.4603 47.1379 21.8558 47.1379 22.3437V24.8742C47.1379 25.3621 46.7424 25.7576 46.2545 25.7576ZM38.0183 25.522C37.7848 25.522 37.5606 25.4296 37.3951 25.2647C37.2286 25.099 37.1349 24.8736 37.1349 24.6387V16.9108C37.1349 16.423 37.5304 16.0274 38.0183 16.0274H40.2632C41.7308 16.0274 42.9248 17.2214 42.9248 18.689C42.9248 19.2484 42.7513 19.768 42.4556 20.1968C43.1622 20.739 43.6187 21.5919 43.6187 22.5494C43.6187 24.1835 42.2894 25.5129 40.6553 25.5129C40.0865 25.5129 38.0226 25.522 38.0223 25.522C38.0209 25.522 38.0196 25.522 38.0183 25.522ZM38.9017 21.3567V23.7516C39.5367 23.7491 40.3338 23.7462 40.6552 23.7462C41.3151 23.7462 41.8518 23.2093 41.8518 22.5495C41.8518 21.8896 41.3149 21.3528 40.6552 21.3528C40.409 21.3527 39.5248 21.355 38.9017 21.3567ZM38.9017 17.7942V19.5885C39.3781 19.5862 39.9868 19.5838 40.2632 19.5838C40.7565 19.5838 41.158 19.1823 41.158 18.6889C41.158 18.1955 40.7566 17.7941 40.2632 17.7941H38.9017V17.7942Z" fill="black"/>
</svg>
