<svg width="64" height="64" viewBox="0 0 64 64" fill="none" xmlns="http://www.w3.org/2000/svg">
<path d="M32 0C14.3267 0 0 14.3267 0 32C0 49.6733 14.3267 64 32 64C49.6733 64 64 49.6733 64 32C63.98 14.335 49.665 0.0200195 32 0ZM32 61.8667C15.5049 61.8667 2.1333 48.4951 2.1333 32C2.1333 15.5049 15.5049 2.1333 32 2.1333C48.4951 2.1333 61.8667 15.5049 61.8667 32C61.8477 48.4873 48.4873 61.8477 32 61.8667Z" fill="black"/>
<path d="M32 4.2666C25.4443 4.27197 19.103 6.60303 14.1045 10.8447C14.0918 10.8555 14.0864 10.8706 14.0747 10.8823C14.063 10.894 14.0488 10.896 14.0371 10.9067C14.0039 10.9497 13.9741 10.9956 13.9478 11.043C13.8301 11.2144 13.7568 11.4116 13.7344 11.6182C13.7432 11.7529 13.7642 11.8867 13.7964 12.0181C13.8237 12.0806 13.8569 12.1406 13.8955 12.1973C13.9189 12.25 13.9468 12.3008 13.9785 12.3486C13.9902 12.3618 14.0054 12.3657 14.0171 12.3789C14.0288 12.3916 14.0308 12.4043 14.0415 12.415L22.7134 21.0239C22.9795 21.3145 23.3833 21.4351 23.7646 21.3374C24.146 21.2402 24.4424 20.9404 24.5366 20.5586C24.6304 20.1763 24.5063 19.7734 24.2134 19.5103L16.4033 11.7559C26.5767 3.88867 41.0117 4.80908 50.104 13.9038C59.1968 22.9985 60.1128 37.4341 52.2432 47.6055L45.5469 40.9087C45.1279 40.5044 44.4629 40.5103 44.0513 40.9219C43.6401 41.333 43.6343 41.9985 44.0386 42.417L51.5903 49.9692C51.6011 49.9795 51.6162 49.9829 51.6279 49.9937C51.6362 50.0054 51.6455 50.0166 51.6553 50.0278C51.7583 50.0874 51.8608 50.1475 51.9639 50.207C52.0845 50.2549 52.2134 50.2803 52.3433 50.2817C52.4883 50.2803 52.6313 50.2495 52.7637 50.1909C52.8062 50.1665 52.8467 50.1396 52.8853 50.1099C52.9619 50.0723 53.0337 50.0249 53.0986 49.9692C53.1104 49.9575 53.1138 49.9424 53.124 49.9307C53.1348 49.9189 53.1489 49.9155 53.1582 49.9053C60.1357 41.6655 61.6948 30.1245 57.1538 20.3291C52.6123 10.5337 42.7969 4.26563 32 4.2666Z" fill="black"/>
<path d="M50.3665 52.062C50.3597 51.9951 50.346 51.9297 50.326 51.8657C50.2972 51.7993 50.2615 51.7368 50.2195 51.6777C50.1971 51.6284 50.1707 51.5811 50.1404 51.5361C50.1302 51.5244 50.1141 51.519 50.1033 51.5073C50.0926 51.4956 50.0882 51.4795 50.0755 51.4678L40.2132 41.9009C39.9398 41.6343 39.5443 41.5337 39.1766 41.6372C38.8089 41.7407 38.5242 42.0327 38.43 42.4028C38.3358 42.7734 38.4461 43.166 38.72 43.4326L47.7108 52.1504C37.5394 60.1255 23.014 59.2461 13.8787 50.1025C4.74347 40.9595 3.87726 26.4331 11.8611 16.269L18.6273 23.04C18.8948 23.3174 19.2913 23.4287 19.6644 23.3311C20.0374 23.2334 20.3284 22.9419 20.4261 22.5688C20.5237 22.1963 20.4124 21.7993 20.1351 21.5317L12.5194 13.9155C12.5096 13.9062 12.4959 13.9028 12.4861 13.8936C12.4764 13.8838 12.4725 13.8711 12.4617 13.8613C12.4134 13.8286 12.3631 13.8003 12.3104 13.7759C12.2528 13.7344 12.1912 13.6987 12.1268 13.6694C12.0604 13.6489 11.992 13.6353 11.9232 13.6299C11.8607 13.6162 11.7972 13.6084 11.7332 13.6064C11.6629 13.6123 11.5936 13.626 11.5262 13.647C11.4622 13.6577 11.3992 13.6748 11.3387 13.6982C11.2737 13.7314 11.2132 13.772 11.157 13.8188C11.1077 13.8457 11.0604 13.8765 11.0164 13.9116C11.0067 13.9209 11.0037 13.9351 10.994 13.9443C10.9842 13.9541 10.9715 13.9595 10.9617 13.9702C1.54767 24.9629 2.17951 41.3491 12.4129 51.584C22.6458 61.8188 39.0325 62.4536 50.0267 53.041C50.0394 53.0303 50.0447 53.0142 50.0574 53.0024C50.0701 52.9907 50.0843 52.9878 50.096 52.9761C50.1287 52.9326 50.158 52.8867 50.1834 52.8384C50.2283 52.7827 50.2674 52.7227 50.2996 52.6592C50.3406 52.5308 50.3704 52.3984 50.388 52.2646C50.388 52.1963 50.3807 52.1284 50.3665 52.062Z" fill="black"/>
<path d="M48.9922 21.0391C48.9785 21.0049 48.9634 20.9722 48.9463 20.9399C48.9048 20.8574 48.8535 20.7808 48.7925 20.7114C48.77 20.686 48.751 20.6592 48.7275 20.6367C48.6416 20.5532 48.542 20.4849 48.4331 20.4351L48.417 20.4277L38.8364 16.1694C38.8286 16.1694 38.8203 16.1694 38.8115 16.1694C38.7349 16.1426 38.6548 16.124 38.5737 16.1152C38.5171 16.0986 38.459 16.0869 38.3999 16.0791C38.3413 16.0845 38.2832 16.0947 38.2261 16.1099C38.147 16.1187 38.0688 16.1362 37.9937 16.1621C37.9844 16.1636 37.9751 16.166 37.9658 16.1685L28.3862 20.4268L28.3701 20.4341C28.2612 20.4839 28.1621 20.5518 28.0767 20.6357C28.0532 20.6592 28.0312 20.6841 28.0107 20.7104C27.9497 20.7793 27.8984 20.8564 27.8569 20.9385C27.8413 20.9717 27.8242 21.0024 27.811 21.0366C27.7642 21.1553 27.7393 21.2808 27.7363 21.4082V24.8638L24.9697 23.6353C24.9609 23.6353 24.9526 23.6353 24.9438 23.6289C24.8081 23.5957 24.6714 23.5679 24.5332 23.5454C24.4746 23.5513 24.4165 23.5615 24.3594 23.5767C24.2803 23.5854 24.2021 23.603 24.127 23.6289C24.1182 23.6304 24.1089 23.6323 24.1001 23.6353L14.5195 27.8936L14.5034 27.9009C14.3945 27.9502 14.2954 28.0186 14.21 28.1025C14.1865 28.126 14.1646 28.1509 14.144 28.1772C14.083 28.2461 14.0317 28.3228 13.9902 28.4053C13.9746 28.4385 13.9575 28.4692 13.9443 28.5034C13.8979 28.6216 13.8726 28.7476 13.8696 28.8745V41.6748C13.8755 41.7207 13.8848 41.7666 13.8975 41.811C13.8965 41.9717 13.9541 42.127 14.0596 42.2476C14.0918 42.3066 14.1299 42.3628 14.1729 42.415C14.2402 42.4775 14.3154 42.5308 14.397 42.5737C14.4307 42.6011 14.4663 42.6265 14.5034 42.6494L14.5195 42.6572L24.1001 46.915H24.1079C24.126 46.9229 24.145 46.9238 24.1631 46.9302C24.2793 46.9761 24.4028 47.0015 24.5278 47.0049H24.5386C24.6636 47.0015 24.7871 46.9761 24.9033 46.9302C24.9214 46.9238 24.9409 46.9229 24.959 46.915H24.9663L34.5474 42.6572L34.563 42.6494C34.6006 42.6274 34.6362 42.6021 34.6699 42.5747C34.7515 42.5312 34.8276 42.4775 34.896 42.415C34.9385 42.3628 34.9756 42.3066 35.0078 42.2476C35.0493 42.1929 35.085 42.1343 35.1147 42.0728C35.1431 41.9883 35.1606 41.9009 35.167 41.8125C35.1812 41.7676 35.1924 41.7222 35.2002 41.6758V38.2188L37.9668 39.4507H37.9746C37.9927 39.458 38.0117 39.459 38.0298 39.4658C38.146 39.5117 38.2695 39.5371 38.3945 39.54H38.4053C38.5303 39.5371 38.6538 39.5117 38.77 39.4658C38.7881 39.459 38.8076 39.458 38.8257 39.4507H38.833L48.4141 35.1924L48.4297 35.1851C48.4673 35.1626 48.5029 35.1377 48.5366 35.1104C48.6182 35.0669 48.6943 35.0132 48.7627 34.9502C48.8052 34.8979 48.8423 34.8418 48.8745 34.7827C48.916 34.7285 48.9517 34.6699 48.9814 34.6079C49.0098 34.5239 49.0269 34.4365 49.0337 34.3477C49.0479 34.3022 49.0591 34.2559 49.0669 34.209V21.4092C49.0645 21.2822 49.0391 21.1567 48.9922 21.0391ZM39.4668 26.3721L46.9331 23.0537V33.52L39.4668 36.8384V26.3721ZM38.3999 18.3125L45.374 21.4121L38.3999 24.5088L31.4263 21.4092L38.3999 18.3125ZM24.5332 25.7793L28.3735 27.4858L28.3936 27.4946L31.5063 28.8809L24.5332 31.9756L17.5596 28.876L24.5332 25.7793ZM33.0669 36.5601V40.9868L25.6001 44.3052V33.8359L33.0669 30.5171V36.5601ZM16 30.5171L23.4668 33.8359V44.3018L16 40.9834V30.5171ZM35.2002 28.876C35.1973 28.7119 35.1558 28.5513 35.0796 28.4062C35.0386 28.3242 34.9868 28.2471 34.9258 28.1782C34.9033 28.1523 34.8843 28.126 34.8608 28.1035C34.7749 28.02 34.6753 27.9517 34.5664 27.9019L34.5503 27.8945L29.8667 25.8135V23.0508L37.3335 26.3691V36.834L35.2002 35.8848V28.876Z" fill="black"/>
</svg>
