<svg width="64" height="64" viewBox="0 0 64 64" fill="none" xmlns="http://www.w3.org/2000/svg">
<g clip-path="url(#clip0)">
<path d="M61.4584 26.7683C59.2519 22.3948 55.922 18.8226 51.8253 16.3562L53.2511 12.0262L54.5005 12.4377C54.742 12.5169 54.9904 12.5564 55.2379 12.5564C55.6038 12.5564 55.9678 12.4703 56.3046 12.3003C56.8699 12.0148 57.2895 11.5278 57.4859 10.9298L58.6092 7.52033C59.0162 6.28086 58.3396 4.94151 57.1011 4.53477L52.5263 3.02906C52.0251 2.86409 51.4853 3.13657 51.3202 3.63784C51.1552 4.13898 51.4278 4.67897 51.929 4.84393L56.5043 6.3499C56.7383 6.42659 56.8709 6.68977 56.7941 6.92339L55.6708 10.3329C55.6205 10.4861 55.5067 10.5627 55.4433 10.5946C55.3799 10.6267 55.2502 10.6726 55.0971 10.6226L41.6864 6.20633C41.5346 6.1564 41.4589 6.04366 41.4275 5.98086C41.3955 5.91717 41.3495 5.78736 41.4002 5.63284L42.5235 2.22334C42.5738 2.07022 42.6876 1.99353 42.7509 1.96168C42.8144 1.92984 42.944 1.8836 43.0969 1.93353L47.8521 3.50077C48.3531 3.66599 48.8932 3.39351 49.0584 2.8925C49.2236 2.39136 48.9512 1.85137 48.4502 1.68615L43.6939 0.118527C43.0952 -0.0777756 42.4547 -0.0291139 41.8897 0.256105C41.3244 0.541578 40.9048 1.02845 40.7085 1.6264L39.5852 5.03591C39.1779 6.27589 39.8531 7.61536 41.0895 8.02147L42.3398 8.43318L40.9121 12.7609C38.9637 12.5781 36.998 12.6217 35.0286 12.8948C34.5059 12.9671 34.1409 13.4495 34.2134 13.9721C34.2858 14.4947 34.7691 14.8605 35.2907 14.7872C38.8962 14.2876 42.4891 14.6158 45.9708 15.7629C51.9995 17.749 56.8939 21.963 59.7523 27.6289C62.6107 33.2947 63.0911 39.7342 61.105 45.7614C57.0089 58.2029 43.552 64.992 31.1075 60.8958C25.0807 58.9114 20.1875 54.698 17.3295 49.0313C14.4714 43.3648 13.991 36.9247 15.9771 30.8974C18.3227 23.7712 23.9858 18.1107 31.1261 15.7559C31.6271 15.5905 31.8993 15.0504 31.7341 14.5493C31.5687 14.0484 31.0291 13.7763 30.5275 13.9413C28.9062 14.476 27.3384 15.1755 25.8538 16.0201H18.2002C17.6725 16.0201 17.2449 16.4477 17.2449 16.9753C17.2449 17.503 17.6725 17.9306 18.2002 17.9306H22.9649C22.1127 18.5793 21.3001 19.2784 20.5376 20.0271C17.8702 22.6469 15.7908 25.87 14.4817 29.3943H7.80159C7.27395 29.3943 6.84631 29.8219 6.84631 30.3495C6.84631 30.8772 7.27395 31.3048 7.80159 31.3048H13.8554C12.7765 35.0804 12.5791 38.9819 13.2474 42.765H3.04267C2.51504 42.765 2.0874 43.1927 2.0874 43.7203C2.0874 44.2479 2.51504 44.6756 3.04267 44.6756H13.6618C14.1203 46.4596 14.7743 48.2074 15.6238 49.8917C16.7961 52.2161 18.2861 54.3134 20.039 56.1394H11.452C10.9243 56.1394 10.4967 56.567 10.4967 57.0946C10.4967 57.6223 10.9243 58.0499 11.452 58.0499H22.089C24.5425 60.096 27.3846 61.6814 30.5102 62.7105C33.1664 63.5848 35.8638 64.0001 38.5192 64C49.3039 63.9992 59.3687 57.1451 62.9199 46.359C65.0658 39.8474 64.5467 32.8899 61.4584 26.7683ZM42.8392 13.018L44.1545 9.03088L51.4362 11.4288L50.1229 15.4172C48.9863 14.8456 47.7996 14.3539 46.5689 13.9484C45.3375 13.5427 44.0929 13.2336 42.8392 13.018Z" fill="black"/>
<path d="M-0.0447276 17.9304H11.8346C12.3622 17.9304 12.7899 17.5028 12.7899 16.9752C12.7899 16.4475 12.3622 16.0199 11.8346 16.0199H-0.0447276C-0.572363 16.0199 -1 16.4475 -1 16.9752C-1 17.5028 -0.572363 17.9304 -0.0447276 17.9304Z" fill="black"/>
<path d="M3.7751 22.7071C3.24746 22.7071 2.81982 23.1347 2.81982 23.6624C2.81982 24.19 3.24746 24.6176 3.7751 24.6176H12.755C13.2826 24.6176 13.7102 24.19 13.7102 23.6624C13.7102 23.1347 13.2826 22.7071 12.755 22.7071H3.7751Z" fill="black"/>
<path d="M7.63006 37.0332C7.63006 36.5055 7.20243 36.0779 6.67479 36.0779H-0.0447276C-0.572363 36.0779 -1 36.5055 -1 37.0332C-1 37.5608 -0.572363 37.9884 -0.0447276 37.9884H6.67479C7.20243 37.9886 7.63006 37.5608 7.63006 37.0332Z" fill="black"/>
<path d="M11.4503 50.4075C11.4503 49.8799 11.0227 49.4523 10.495 49.4523H5.81562C5.28799 49.4523 4.86035 49.8799 4.86035 50.4075C4.86035 50.9352 5.28786 51.3628 5.81562 51.3628H10.495C11.0227 51.3628 11.4503 50.9352 11.4503 50.4075Z" fill="black"/>
<path d="M19.3401 32.008C15.855 42.5957 21.6319 54.0445 32.2176 57.529C34.2979 58.2145 36.4355 58.5547 38.5639 58.5547C41.6825 58.5547 44.7808 57.824 47.6461 56.3788C52.4666 53.9473 56.0522 49.7836 57.7421 44.6549C57.7448 44.6468 57.7473 44.6386 57.7499 44.6305L57.7574 44.6055C61.211 34.0347 55.43 22.6089 44.8665 19.1304C42.9199 18.4815 40.8664 18.137 38.8153 18.1068C36.7536 18.0763 34.6901 18.3684 32.7171 18.9666C31.5881 19.3089 30.4894 19.7504 29.4362 20.2819C24.6157 22.7143 21.0302 26.8786 19.3401 32.008ZM56.2118 43.1051L42.6727 38.6463C42.7385 37.8895 42.5944 37.1275 42.2439 36.4324C41.8932 35.7371 41.3659 35.1683 40.7183 34.7717L45.1665 21.2667C53.8651 24.6376 58.6511 34.1007 56.2118 43.1051ZM39.5544 40.2812C39.0235 40.5487 38.4205 40.5937 37.8558 40.4081C36.691 40.0248 36.0556 38.7647 36.439 37.5988C36.7465 36.6642 37.6187 36.0703 38.5537 36.0703C38.7834 36.0703 39.017 36.1062 39.2467 36.1817C39.2471 36.1818 39.2474 36.1819 39.2477 36.182C39.2481 36.1822 39.2484 36.1822 39.2488 36.1823C39.8126 36.368 40.2703 36.7623 40.5378 37.2926C40.8053 37.8229 40.8504 38.426 40.665 38.9904C40.6649 38.9907 40.6649 38.9908 40.6648 38.991C40.6647 38.9913 40.6647 38.9917 40.6645 38.9919C40.4789 39.5559 40.0847 40.0137 39.5544 40.2812ZM38.5224 20.016C40.1379 20.016 41.7597 20.2336 43.3515 20.6694L38.9033 34.1744C38.1463 34.1086 37.3843 34.2526 36.6892 34.6033C36.4533 34.7223 36.2324 34.8622 36.0271 35.0195L29.6542 29.2103C29.2642 28.8549 28.66 28.8828 28.3046 29.2727C27.9492 29.6626 27.9772 30.2668 28.367 30.6224L34.8235 36.5076C34.7475 36.667 34.6802 36.8315 34.6241 37.0019C34.2789 38.0511 34.3627 39.1718 34.86 40.158C35.3576 41.1444 36.2094 41.8779 37.2585 42.223C37.5329 42.3133 37.8122 42.371 38.0926 42.403L38.4172 45.1818C38.474 45.6683 38.8867 46.0264 39.3648 46.0264C39.4019 46.0264 39.4393 46.0241 39.4769 46.0197C40.001 45.9586 40.3761 45.4841 40.3149 44.96L39.9893 42.1724C40.1333 42.1186 40.2754 42.0574 40.4146 41.9872C41.1099 41.6365 41.6787 41.1092 42.0751 40.4613L55.6186 44.9215C54.1018 48.8636 51.3143 52.1107 47.6504 54.2069L46.5846 52.0933C46.347 51.6221 45.7725 51.4328 45.3015 51.6705C44.8305 51.9079 44.6412 52.4824 44.8787 52.9535L45.9461 55.0702C42.0813 56.7849 37.8084 57.1063 33.7306 55.9898L34.4744 53.7322C34.6397 53.2312 34.3672 52.6911 33.866 52.526C33.3644 52.3607 32.8248 52.6333 32.6598 53.1344L31.9159 55.3922C27.8664 53.8233 24.6662 50.9365 22.647 47.3907L24.7538 46.3281C25.2249 46.0906 25.4142 45.5162 25.1766 45.0451C24.9392 44.5739 24.3645 44.3843 23.8936 44.6223L21.789 45.6837C20.149 41.953 19.7386 37.6679 20.8897 33.4837L23.1145 34.2177C23.2138 34.2506 23.3147 34.2661 23.4138 34.2661C23.815 34.2661 24.1883 34.0115 24.3208 33.6099C24.4862 33.1088 24.2139 32.5686 23.7129 32.4034L21.4911 31.6704C23.0202 27.7438 25.812 24.5111 29.4762 22.4276L30.5228 24.4978C30.6909 24.8304 31.0272 25.0223 31.3761 25.0223C31.5211 25.0223 31.6682 24.9891 31.8064 24.9193C32.2773 24.6812 32.4661 24.1066 32.228 23.6357L31.1837 21.5699C33.5263 20.5381 36.0167 20.016 38.5224 20.016Z" fill="black"/>
</g>
<defs>
<clipPath id="clip0">
<rect width="64" height="64" fill="white"/>
</clipPath>
</defs>
</svg>
