<svg width="64" height="64" viewBox="0 0 64 64" fill="none" xmlns="http://www.w3.org/2000/svg">
<path d="M59.0779 25.8235C58.9637 25.5596 58.7378 25.3604 58.4616 25.2801C58.1855 25.1999 57.888 25.247 57.6502 25.4087C54.5367 27.725 50.9211 29.275 47.0967 29.933C41.9164 30.7723 37.3053 31.7755 33.3115 35.557C32.3375 36.4921 31.5055 37.5646 30.842 38.7404C29.9643 37.024 28.807 35.4656 27.4174 34.1293C23.9156 30.8784 19.864 30.0102 15.3204 29.306C11.9975 28.7526 8.84956 27.4313 6.12711 25.4473C5.8893 25.2856 5.59177 25.2385 5.31564 25.3187C5.03951 25.3989 4.81356 25.5982 4.6994 25.8621C0.136509 36.4735 5.24926 51.1943 17.3076 54.9469C21.2298 56.0743 25.3808 56.1408 29.3371 55.1398C29.7781 55.031 30.0835 54.6292 30.0702 54.1752C30.0702 48.0206 30.649 44.1426 31.6812 41.4415L31.7391 41.3065C32.3596 39.6546 33.3495 38.1665 34.6331 36.9558C38.2121 33.5505 42.5241 32.6244 47.3861 31.8334C51.0869 31.2102 54.6085 29.7917 57.708 27.6757C62.2613 40.5637 54.9105 60.1947 33.9289 58.9985C37.2736 52.3867 42.2551 46.7411 48.399 42.5991C48.702 42.4111 48.8765 42.0712 48.8528 41.7154C48.8291 41.3595 48.611 41.0458 48.2858 40.8996C47.9605 40.7534 47.5811 40.7986 47.2992 41.0171C35.4724 49.1203 31.7584 59.0564 31.6041 59.4712C31.5011 59.7514 31.5337 60.0634 31.6922 60.3163C31.8507 60.5692 32.1174 60.7344 32.4144 60.7639C36.5682 61.2039 40.7682 60.7835 44.7525 59.5291C58.393 55.1881 64.2774 38.1809 59.0779 25.8235ZM28.1409 51.368C26.6649 48.966 22.8449 43.9111 15.195 38.7404C14.7528 38.4421 14.1525 38.5587 13.8541 39.0009C13.5558 39.4431 13.6724 40.0434 14.1146 40.3418C23.5298 46.7472 26.9254 53.0079 27.2437 53.606C10.3041 56.4132 1.81504 39.7051 6.04994 27.6564C8.75225 29.4532 11.808 30.6505 15.0117 31.1678C19.3913 31.8623 22.9992 32.6341 26.0958 35.5184C27.702 37.0753 28.9582 38.9563 29.7808 41.0364C28.6952 44.3728 28.1418 47.8594 28.1409 51.368Z" fill="black"/>
<path d="M31.3145 32.663C31.4957 32.8457 31.7422 32.9484 31.9995 32.9484C32.2567 32.9484 32.5032 32.8457 32.6844 32.663L45.5917 19.6111C51.5726 13.5722 47.4342 3.04767 38.7522 3.04767C36.2036 3.0647 33.7694 4.10792 31.9995 5.94168C30.2093 4.1199 27.7623 3.09373 25.2082 3.09373C22.6541 3.09373 20.2071 4.1199 18.4169 5.94168C14.6631 9.7438 14.6631 15.8572 18.4169 19.6593L31.3145 32.663ZM19.7867 7.25363C21.2176 5.79894 23.1726 4.97968 25.213 4.97968C27.2534 4.97968 29.2084 5.79894 30.6393 7.25363L31.3145 7.9289C31.4957 8.11152 31.7422 8.21425 31.9995 8.21425C32.2567 8.21425 32.5032 8.11152 32.6844 7.9289L33.3693 7.24398C35.5896 5.08279 38.8872 4.45905 41.7435 5.66003C44.5997 6.861 46.4607 9.65379 46.4695 12.7523C46.4776 14.8104 45.6693 16.7877 44.2218 18.2509L31.9995 30.6179L19.7867 18.2509C16.7758 15.2034 16.7758 10.3011 19.7867 7.25363Z" fill="black"/>
<path d="M21.3884 16.6495C21.7503 16.6468 22.0803 16.4418 22.243 16.1185C22.4057 15.7951 22.3737 15.4079 22.1601 15.1157C21.0077 13.543 21.1628 11.3673 22.5267 9.974C22.7697 9.72931 22.8636 9.37357 22.7732 9.0408C22.6828 8.70803 22.4217 8.44878 22.0883 8.36071C21.7549 8.27264 21.3998 8.36912 21.1568 8.61382C19.1275 10.6873 18.8988 13.9255 20.6166 16.2637C20.7988 16.5066 21.0847 16.6495 21.3884 16.6495Z" fill="black"/>
<path d="M25.2469 8.83565C25.5066 8.8354 25.7655 8.86452 26.0186 8.92247C26.5514 9.03435 27.074 8.69315 27.1859 8.16038C27.2978 7.62761 26.9566 7.10501 26.4238 6.99313C26.0349 6.92878 25.641 6.89973 25.2469 6.90631C24.7141 6.90631 24.2822 7.33821 24.2822 7.87098C24.2822 8.40375 24.7141 8.83565 25.2469 8.83565Z" fill="black"/>
</svg>
