<svg width="64" height="64" viewBox="0 0 64 64" fill="none" xmlns="http://www.w3.org/2000/svg">
<path d="M11.7943 28.8103C12.2274 30.4264 11.1077 32.9403 12.2591 34.9156C13.4104 36.8908 16.199 37.2394 17.3081 38.359C18.0088 39.3522 18.6069 40.4139 19.0932 41.5278L13.4949 57.8685C13.231 58.7184 13.528 59.6426 14.2377 60.1796C14.9474 60.7166 15.9176 60.7512 16.6638 60.2662L20.1706 57.784L21.4064 61.8929C21.6674 62.7745 22.4686 63.3861 23.3878 63.4054C24.307 63.4247 25.1331 62.8473 25.4309 61.9774L30.9024 46.2283C31.8474 46.6298 32.915 46.6298 33.86 46.2283L39.2892 62.0196C39.5869 62.8895 40.4131 63.4669 41.3323 63.4476C42.2515 63.4283 43.0527 62.8167 43.3136 61.9351L44.5495 57.8262L48.0563 60.2768C48.8025 60.7618 49.7726 60.7271 50.4823 60.1901C51.192 59.6531 51.4891 58.729 51.2251 57.879L45.6691 41.5701C46.1572 40.4592 46.7515 39.3979 47.4437 38.4013C48.595 37.2182 51.3942 36.9014 52.5032 34.9261C53.6123 32.9509 52.5561 30.3841 52.968 28.8208C53.38 27.2575 55.6193 25.6203 55.6193 23.3071C55.6193 20.9938 53.3588 19.2721 52.968 17.7933C52.5772 16.3145 53.6546 13.6633 52.5032 11.688C51.3519 9.71278 48.5633 9.36421 47.4542 8.24455C46.3451 7.1249 45.9966 4.29408 44.0002 3.17442C42.0038 2.05477 39.4582 3.17442 37.8949 2.72023C36.3316 2.26603 34.705 0.0689697 32.3812 0.0689697C30.0574 0.0689697 28.3567 2.31884 26.8674 2.72023C25.2196 3.1533 22.7479 2.02308 20.7621 3.17442C18.7763 4.32577 18.4489 7.10378 17.3187 8.23399C16.1884 9.36421 13.3682 9.69165 12.3119 11.688C11.2556 13.6844 12.3119 16.23 11.8471 17.7933C11.3824 19.3566 9.14307 20.9727 9.14307 23.3071C9.14307 25.6414 11.3929 27.3104 11.7943 28.8103ZM23.4767 61.333L22.2409 57.203C22.0322 56.559 21.5275 56.0541 20.8836 55.8451C20.2398 55.636 19.5348 55.7482 18.9876 56.1467L15.4807 58.5973C21.1424 42.1088 20.6565 43.3763 20.7621 43.3763C22.7057 44.5065 25.3041 43.3763 26.8674 43.8305C27.6292 44.1575 28.3406 44.5915 28.98 45.1192L23.4767 61.333ZM45.7748 56.0517C45.2131 55.6555 44.4939 55.5574 43.8466 55.7886C43.1994 56.0197 42.7051 56.5513 42.5214 57.2136L41.2856 61.333L35.7296 45.1614C36.3637 44.6292 37.0763 44.198 37.8421 43.8833C39.5005 43.4397 41.9616 44.5699 43.9474 43.4186C44.053 43.3552 43.5777 42.1299 49.2288 58.5867L45.7748 56.0517ZM12.4387 20.8776C13.9491 18.7651 14.1604 18.0679 13.9174 15.3322C13.6745 12.5964 13.8224 12.4063 16.2835 11.2761C18.7446 10.1459 19.2305 9.6494 20.3502 7.19884C21.4698 4.74828 21.8184 4.6004 24.4168 4.84334C27.0153 5.08629 27.8286 4.84334 29.9623 3.36455C32.096 1.88577 32.5713 1.7907 34.8 3.36455C37.0288 4.93841 37.6625 5.07572 40.3455 4.84334C43.0284 4.61096 43.2819 4.74828 44.4122 7.19884C45.5424 9.6494 46.0494 10.1459 48.4788 11.2761C50.9083 12.4063 51.0878 12.6915 50.8449 15.3322C50.6019 17.9729 50.8449 18.7545 52.3237 20.8776C53.8025 23.0007 53.8975 23.4866 52.3237 25.7154C50.7498 27.9441 50.6019 28.5251 50.8449 31.2608C51.0878 33.9966 50.94 34.1867 48.4788 35.3275C46.0177 36.4683 45.5424 36.9436 44.4122 39.3942C43.2819 41.8447 42.9967 41.9926 40.3455 41.7602C37.6942 41.5279 36.9337 41.7602 34.8 43.2285C32.6664 44.6967 32.191 44.8023 29.9623 43.2285C28.8613 42.2328 27.4328 41.6764 25.9484 41.6652C24.4274 41.6652 22.7057 42.0982 21.8184 41.5912C20.6037 40.8835 20.2762 38.3273 18.808 36.8697C17.3398 35.412 14.773 35.0529 14.0864 33.8698C13.3999 32.6868 14.3716 30.2785 13.8329 28.2821C13.2942 26.2858 11.2556 24.7119 11.2556 23.3071C11.4156 22.4028 11.8254 21.5612 12.4387 20.8776Z" fill="black"/>
<path d="M32.3813 39.1512C41.1318 39.1512 48.2254 32.0575 48.2254 23.307C48.2254 14.5566 41.1318 7.46289 32.3813 7.46289C23.6308 7.46289 16.5371 14.5566 16.5371 23.307C16.5371 32.0575 23.6308 39.1512 32.3813 39.1512ZM32.3813 9.57544C39.965 9.57544 46.1129 15.7233 46.1129 23.307C46.1129 30.8908 39.965 37.0386 32.3813 37.0386C24.7975 37.0386 18.6497 30.8908 18.6497 23.307C18.6497 19.6652 20.0964 16.1725 22.6716 13.5973C25.2467 11.0222 28.7394 9.57544 32.3813 9.57544Z" fill="black"/>
<path d="M25.0402 26.7189C25.6029 26.6907 26.0444 26.226 26.0437 25.6626C25.994 23.7905 26.7294 21.9829 28.0718 20.677C29.6667 19.0926 31.5469 18.6701 33.8602 18.2792C35.4565 18.0047 36.9824 17.4159 38.3493 16.5469C39.7225 21.8283 37.2191 28.3772 32.0117 30.1095C30.7909 30.5113 29.5153 30.7215 28.2302 30.7327C29.7631 27.8748 31.9313 25.4067 34.5679 23.5184C34.7953 23.3535 34.9476 23.1047 34.9912 22.8272C35.0348 22.5497 34.9661 22.2663 34.8002 22.0396C34.4574 21.5726 33.8023 21.4689 33.332 21.8072C29.9088 24.1797 27.2308 27.4767 25.6106 31.3137C25.5019 31.6192 25.5396 31.9577 25.7127 32.2318C25.8859 32.506 26.1753 32.6854 26.4979 32.7185C32.0222 33.3101 36.9867 31.0707 39.4479 25.7471C41.0951 22.1929 41.2548 18.128 39.8915 14.4555C39.7706 14.1547 39.5182 13.9261 39.207 13.8355C38.8957 13.7448 38.5601 13.802 38.2965 13.9907C36.8922 15.089 35.2435 15.8319 33.4905 16.1561C30.9026 16.5892 28.5999 17.1173 26.5613 19.1348C24.807 20.8624 23.8536 23.2439 23.9311 25.7049C23.9421 25.987 24.0655 26.253 24.2739 26.4435C24.4823 26.6341 24.7583 26.7332 25.0402 26.7189Z" fill="black"/>
</svg>
