<svg width="24" height="18" viewBox="0 0 24 18" fill="none" xmlns="http://www.w3.org/2000/svg">
<path d="M23.0625 8.0625H0.9375C0.419719 8.0625 0 8.48222 0 9C0 9.51778 0.419719 9.9375 0.9375 9.9375H23.0625C23.5803 9.9375 24 9.51778 24 9C24 8.48222 23.5803 8.0625 23.0625 8.0625Z" fill="black"/>
<path d="M23.0625 0.5625H0.9375C0.419719 0.5625 0 0.982219 0 1.5C0 2.01778 0.419719 2.4375 0.9375 2.4375H23.0625C23.5803 2.4375 24 2.01778 24 1.5C24 0.982219 23.5803 0.5625 23.0625 0.5625Z" fill="black"/>
<path d="M23.0625 15.5625H0.9375C0.419719 15.5625 0 15.9822 0 16.5C0 17.0178 0.419719 17.4375 0.9375 17.4375H23.0625C23.5803 17.4375 24 17.0178 24 16.5C24 15.9822 23.5803 15.5625 23.0625 15.5625Z" fill="black"/>
</svg>
