<svg width="42" height="42" viewBox="0 0 42 42" fill="none" xmlns="http://www.w3.org/2000/svg">
<path fill-rule="evenodd" clip-rule="evenodd" d="M0.687502 21C0.687501 32.2178 9.78223 41.3125 21 41.3125C32.2178 41.3125 41.3125 32.2178 41.3125 21C41.3125 9.78223 32.2178 0.687499 21 0.687498C9.78223 0.687497 0.687503 9.78222 0.687502 21ZM21.4541 12.078C21.7484 12.3698 21.9146 12.7667 21.9163 13.1811C21.9179 13.5956 21.7548 13.9937 21.4629 14.2879L16.3535 19.4373L29.3984 19.4373C30.2614 19.4373 30.9609 20.1369 30.9609 20.9998C30.9609 21.8628 30.2614 22.5623 29.3984 22.5623L16.3535 22.5623L21.4629 27.7117C21.8561 28.1084 22.0078 28.6848 21.8609 29.2236C21.7139 29.7625 21.2906 30.182 20.7505 30.3242C20.2104 30.4664 19.6354 30.3096 19.2422 29.9129L11.4893 22.1004C10.8847 21.4912 10.8847 20.5085 11.4893 19.8993L19.2422 12.0868C19.5341 11.7919 19.9314 11.6253 20.3463 11.6236C20.7613 11.622 21.1598 11.7854 21.4541 12.078Z" fill="#62AB05"/>
</svg>
