<svg width="42" height="42" viewBox="0 0 42 42" fill="none" xmlns="http://www.w3.org/2000/svg">
<path fill-rule="evenodd" clip-rule="evenodd" d="M41.3125 21C41.3125 9.78223 32.2178 0.6875 21 0.6875C9.78223 0.6875 0.6875 9.78223 0.6875 21C0.6875 32.2178 9.78223 41.3125 21 41.3125C32.2178 41.3125 41.3125 32.2178 41.3125 21ZM20.5459 29.922C20.2516 29.6302 20.0854 29.2333 20.0837 28.8189C20.0821 28.4044 20.2452 28.0063 20.5371 27.7121L25.6465 22.5627H12.6016C11.7386 22.5627 11.0391 21.8631 11.0391 21.0002C11.0391 20.1372 11.7386 19.4377 12.6016 19.4377H25.6465L20.5371 14.2883C20.1439 13.8916 19.9922 13.3152 20.1391 12.7764C20.2861 12.2375 20.7094 11.818 21.2495 11.6758C21.7896 11.5336 22.3646 11.6904 22.7578 12.0871L30.5107 19.8996C31.1153 20.5088 31.1153 21.4915 30.5107 22.1007L22.7578 29.9132C22.4659 30.2081 22.0686 30.3747 21.6537 30.3764C21.2387 30.378 20.8402 30.2146 20.5459 29.922Z" fill="#62AB05"/>
</svg>
